<?xml version="1.0" encoding="UTF-8"?>
<svg version="1.1" xmlns="http://www.w3.org/2000/svg" width="944" height="362">
<path d="M0 0 C1.11778336 -0.00315216 2.23556671 -0.00630432 3.38722229 -0.009552 C4.59869431 -0.00752777 5.81016632 -0.00550354 7.05834961 -0.00341797 C8.91501503 -0.00485306 8.91501503 -0.00485306 10.80918884 -0.00631714 C14.10171246 -0.00717346 17.39418916 -0.00313863 20.68670654 0.00244141 C22.71009824 0.00439396 24.73344662 0.0024468 26.75683594 -0.00097656 C30.62819455 -0.00712796 34.49948838 -0.00641261 38.37084961 -0.00341797 C39.58434586 -0.0054422 40.7978421 -0.00746643 42.04811096 -0.009552 C43.16274216 -0.00639984 44.27737335 -0.00324768 45.42578125 0 C46.90565269 0.00119339 46.90565269 0.00119339 48.41542053 0.00241089 C50.64819336 0.12939453 50.64819336 0.12939453 51.64819336 1.12939453 C51.74631426 2.80174672 51.77374909 4.47827523 51.7740345 6.15350342 C51.77664225 7.24866398 51.77924999 8.34382454 51.78193676 9.47217178 C51.77970604 10.69033459 51.77747532 11.90849739 51.775177 13.16357422 C51.77673699 14.44595852 51.77829698 15.72834282 51.77990425 17.04958725 C51.78410203 20.62550024 51.78200487 24.20138676 51.77891803 27.77729988 C51.77666596 31.62737335 51.78014257 35.4774421 51.78289795 39.32751465 C51.78735672 46.87629254 51.7863787 54.42506052 51.78348531 61.97383881 C51.78123169 68.1060545 51.78091857 74.23826741 51.78200912 80.3704834 C51.78216236 81.24152261 51.78231559 82.11256183 51.78247347 83.00999618 C51.78279318 84.77920691 51.78311739 86.54841765 51.78344606 88.31762838 C51.78630116 104.92784857 51.78301335 121.53806325 51.77764569 138.14828253 C51.77317763 152.41672887 51.77395355 166.68516708 51.77856445 180.95361328 C51.78390968 197.50228637 51.78602647 214.05095462 51.78295219 230.59962845 C51.78263362 232.36252085 51.78231925 234.12541326 51.78200912 235.88830566 C51.78185485 236.75580059 51.78170057 237.62329551 51.78154162 238.51707816 C51.78067631 244.64562327 51.78213965 250.77416533 51.78448868 256.90270996 C51.7872863 264.36605082 51.78654922 271.82938115 51.78120793 279.29272079 C51.7785704 283.10440907 51.77756672 286.91607977 51.78085709 290.72776794 C51.78436207 294.85026571 51.78019192 298.97271866 51.775177 303.09521484 C51.77740772 304.31337765 51.77963845 305.53154045 51.78193676 306.78661728 C51.77932902 307.88177784 51.77672127 308.9769384 51.7740345 310.10528564 C51.77387215 311.05822132 51.7737098 312.011157 51.77354252 312.99296951 C51.64819336 315.12939453 51.64819336 315.12939453 50.64819336 316.12939453 C49.02691913 316.22801051 47.40136968 316.2573822 45.77709961 316.25878906 C44.22043579 316.2635173 44.22043579 316.2635173 42.63232422 316.26834106 C40.93861694 316.26530472 40.93861694 316.26530472 39.21069336 316.26220703 C38.06028564 316.26316376 36.90987793 316.26412048 35.72460938 316.2651062 C33.28670192 316.26578822 30.84879266 316.26393243 28.41088867 316.25976562 C24.66442818 316.25441771 20.91808759 316.25970992 17.17163086 316.26611328 C14.80965143 316.2654525 12.44767207 316.26417135 10.08569336 316.26220703 C8.95655518 316.26423126 7.82741699 316.26625549 6.6640625 316.26834106 C5.62628662 316.2651889 4.58851074 316.26203674 3.51928711 316.25878906 C2.60074951 316.25799347 1.68221191 316.25719788 0.73583984 316.25637817 C-1.35180664 316.12939453 -1.35180664 316.12939453 -2.35180664 315.12939453 C-2.50866913 313.56990911 -2.60257303 312.00396785 -2.66821289 310.43798828 C-2.71010742 309.49375 -2.75200195 308.54951172 -2.79516602 307.57666016 C-2.83448242 306.5834375 -2.87379883 305.59021484 -2.91430664 304.56689453 C-2.97908203 303.07125977 -2.97908203 303.07125977 -3.04516602 301.54541016 C-3.15160962 299.07355303 -3.25362592 296.60159144 -3.35180664 294.12939453 C-3.806604 294.68175781 -4.26140137 295.23412109 -4.72998047 295.80322266 C-8.81884128 300.72241212 -13.04409332 304.5780518 -18.35180664 308.12939453 C-19.10204102 308.64501953 -19.85227539 309.16064453 -20.62524414 309.69189453 C-27.17163712 313.92904209 -33.86372611 316.09523092 -41.35180664 318.12939453 C-42.60993164 318.52126953 -43.86805664 318.91314453 -45.16430664 319.31689453 C-69.3711827 325.4872747 -97.76550912 321.43011829 -119.31518555 308.99658203 C-125.24228185 305.43354031 -131.15434512 301.70971777 -136.35180664 297.12939453 C-136.35180664 296.46939453 -136.35180664 295.80939453 -136.35180664 295.12939453 C-137.27993164 294.75814453 -137.27993164 294.75814453 -138.22680664 294.37939453 C-140.7389096 292.90168691 -141.11288008 291.68984276 -142.35180664 289.12939453 C-143.34180664 288.79939453 -144.33180664 288.46939453 -145.35180664 288.12939453 C-147.06007981 286.01536973 -148.62494153 283.92333688 -150.16430664 281.69189453 C-150.60935547 281.05300293 -151.0544043 280.41411133 -151.51293945 279.75585938 C-152.80396147 277.88786788 -154.0798826 276.01042364 -155.35180664 274.12939453 C-155.93833008 273.27474609 -156.52485352 272.42009766 -157.12915039 271.53955078 C-168.00749798 254.65935624 -172.08978924 233.7492461 -171.87329102 213.95214844 C-171.85179985 211.62865998 -171.8732733 209.308261 -171.89868164 206.98486328 C-171.94968744 179.46090469 -161.8326807 151.94614573 -142.35180664 132.12939453 C-141.69180664 132.12939453 -141.03180664 132.12939453 -140.35180664 132.12939453 C-140.02180664 131.13939453 -139.69180664 130.14939453 -139.35180664 129.12939453 C-138.69180664 129.12939453 -138.03180664 129.12939453 -137.35180664 129.12939453 C-137.35180664 128.46939453 -137.35180664 127.80939453 -137.35180664 127.12939453 C-124.14731858 115.86004696 -109.29738767 107.9898986 -92.35180664 104.12939453 C-91.46235352 103.90509766 -90.57290039 103.68080078 -89.65649414 103.44970703 C-74.31535992 100.1846843 -56.38464709 100.72177242 -41.35180664 105.12939453 C-40.70840332 105.31743652 -40.065 105.50547852 -39.40209961 105.69921875 C-27.44319058 109.32759158 -17.22822897 115.25297221 -8.35180664 124.12939453 C-8.02180664 83.53939453 -7.69180664 42.94939453 -7.35180664 1.12939453 C-4.76509636 -0.16396061 -2.8963388 0.00233377 0 0 Z M-96.35180664 170.12939453 C-97.61660377 172.25316889 -97.61660377 172.25316889 -98.35180664 174.12939453 C-99.01180664 174.12939453 -99.67180664 174.12939453 -100.35180664 174.12939453 C-108.63830182 186.10986949 -111.52902482 197.10984823 -111.53930664 211.50439453 C-111.55155273 212.39900391 -111.56379883 213.29361328 -111.57641602 214.21533203 C-111.61034302 229.77651888 -106.17934996 242.89359958 -95.35180664 254.12939453 C-84.48759065 264.35567613 -73.00539141 267.30716991 -58.47680664 267.31689453 C-57.52161133 267.32914062 -56.56641602 267.34138672 -55.58227539 267.35400391 C-42.14036668 267.38166215 -30.17237469 262.77129622 -20.37915039 253.36767578 C-7.90933931 239.60042771 -5.32641467 223.75590301 -5.92602539 205.80908203 C-6.68755896 192.83083396 -11.31009561 181.2873453 -19.35180664 171.12939453 C-20.01180664 171.12939453 -20.67180664 171.12939453 -21.35180664 171.12939453 C-21.84680664 169.64439453 -21.84680664 169.64439453 -22.35180664 168.12939453 C-30.49262798 160.92724232 -41.3607687 155.41329588 -52.35180664 155.12939453 C-53.27735352 155.09072266 -54.20290039 155.05205078 -55.15649414 155.01220703 C-70.66365236 154.65708127 -85.15680746 158.91209455 -96.35180664 170.12939453 Z " fill="#030303" transform="translate(172.351806640625,16.87060546875)"/>
<path d="M0 0 C0.86109375 0.19335938 1.7221875 0.38671875 2.609375 0.5859375 C20.53257299 5.09602327 36.47849286 16.88775076 50 29 C50.7425 29.65742188 51.485 30.31484375 52.25 30.9921875 C65.6410702 43.57331393 75.61711733 61.25149494 80 79 C80.35578125 80.2375 80.7115625 81.475 81.078125 82.75 C82.57103377 89.61105812 82.3719971 96.67428872 82.37060547 103.66308594 C82.37495365 106.09903254 82.41128528 108.53312551 82.44921875 110.96875 C82.5239011 121.31209104 81.27196012 130.1613344 78 140 C77.7431543 140.78971191 77.48630859 141.57942383 77.22167969 142.39306641 C74.27302713 150.9356735 70.28472432 158.66702064 65 166 C64.42894531 166.7940625 63.85789062 167.588125 63.26953125 168.40625 C46.25174058 190.75797506 24.19210698 206.15326682 -3 213 C-3.89847656 213.23460937 -4.79695312 213.46921875 -5.72265625 213.7109375 C-17.30684792 216.53037039 -29.1602504 216.22950484 -41 216 C-41.99128906 215.98324219 -42.98257813 215.96648437 -44.00390625 215.94921875 C-68.76823909 214.59279989 -92.08519952 202.54026336 -110 186 C-111.43859375 184.68515625 -111.43859375 184.68515625 -112.90625 183.34375 C-123.28116303 173.4351252 -131.23918131 162.14294563 -137 149 C-137.45117188 147.99710938 -137.90234375 146.99421875 -138.3671875 145.9609375 C-147.4218337 124.36908887 -148.65883785 97.1283035 -141 75 C-140.61457031 73.78441406 -140.22914063 72.56882812 -139.83203125 71.31640625 C-136.01057629 59.82730704 -130.67932081 50.30921747 -123 41 C-122.28585937 40.08992188 -121.57171875 39.17984375 -120.8359375 38.2421875 C-116.30244844 32.52469443 -111.73309722 27.51178601 -106 23 C-105.0821875 22.26910156 -104.164375 21.53820312 -103.21875 20.78515625 C-94.14505955 13.75772331 -84.60889167 8.34165258 -74 4 C-73.2059375 3.66097656 -72.411875 3.32195312 -71.59375 2.97265625 C-49.86884181 -5.69767609 -22.4473191 -6.03483202 0 0 Z M-70.7421875 66.65234375 C-77.04110397 73.20190914 -80.36894145 80.37316379 -83 89 C-83.226875 89.69351563 -83.45375 90.38703125 -83.6875 91.1015625 C-87.47435481 104.72372078 -85.70838182 121.2268583 -79.3125 133.6875 C-71.52512346 146.87796989 -62.63652857 155.18774185 -48 160 C-32.3815117 163.815656 -17.34952906 162.39099031 -3 155 C8.91188946 147.63492008 16.79084298 135.88157314 20.8125 122.625 C24.57630015 105.86094761 22.30201582 89.42270067 13.6953125 74.56640625 C5.59911082 62.31017468 -5.6138198 54.16983631 -20 51 C-40.01821578 48.23489394 -55.93909128 52.75413899 -70.7421875 66.65234375 Z " fill="#050505" transform="translate(862,122)"/>
<path d="M0 0 C1.13787964 -0.00315216 2.27575928 -0.00630432 3.44812012 -0.009552 C4.6866272 -0.00752777 5.92513428 -0.00550354 7.20117188 -0.00341797 C8.46255981 -0.00437469 9.72394775 -0.00533142 11.02355957 -0.00631714 C13.69689325 -0.00699922 16.37013624 -0.00564076 19.04345703 -0.00097656 C22.47698878 0.00472073 25.91044237 0.00144152 29.34397125 -0.00454903 C32.6088743 -0.00902309 35.87376781 -0.0058943 39.13867188 -0.00341797 C40.37717896 -0.0054422 41.61568604 -0.00746643 42.89172363 -0.009552 C44.02960327 -0.00639984 45.16748291 -0.00324768 46.33984375 0 C47.34720581 0.00079559 48.35456787 0.00159119 49.39245605 0.00241089 C51.66992188 0.12939453 51.66992188 0.12939453 52.66992188 1.12939453 C52.76332621 2.75614231 52.78737358 4.38693504 52.78344727 6.01635742 C52.78332642 7.07197876 52.78320557 8.1276001 52.78308105 9.21520996 C52.77796509 10.33286743 52.77284912 11.4505249 52.76757812 12.60205078 C52.76657104 13.62327026 52.76556396 14.64448975 52.76452637 15.69665527 C52.75927602 19.52841304 52.7453149 23.36015486 52.73242188 27.19189453 C52.71179688 35.75126953 52.69117188 44.31064453 52.66992188 53.12939453 C72.46992187 53.12939453 92.26992188 53.12939453 112.66992188 53.12939453 C112.66992188 69.29939453 112.66992188 85.46939453 112.66992188 102.12939453 C92.86992188 102.12939453 73.06992187 102.12939453 52.66992188 102.12939453 C52.78983529 117.59921658 52.78983529 117.59921658 52.92773438 133.06884766 C52.98798731 139.38042086 53.04615658 145.69196412 53.09179688 152.00366211 C53.1287349 157.09362257 53.17511804 162.18341817 53.22798538 167.27323723 C53.24648408 169.21280964 53.26160866 171.15241733 53.27326584 173.09204292 C53.2902058 175.81373007 53.31925938 178.53504338 53.35107422 181.2565918 C53.35323441 182.05428986 53.35539459 182.85198792 53.35762024 183.67385864 C53.4865866 192.33903664 55.77568435 201.01262915 61.85742188 207.44189453 C73.92753902 214.68396482 88.01735919 214.36657315 101.58007812 213.41845703 C107.26834164 213.09540906 112.97249247 213.12939453 118.66992188 213.12939453 C118.66992188 229.29939453 118.66992188 245.46939453 118.66992188 262.12939453 C95.61962156 267.4486946 71.89358837 270.24088572 48.66992188 264.12939453 C47.58453125 263.87416016 46.49914062 263.61892578 45.38085938 263.35595703 C28.54156946 258.89006262 13.62393356 248.94182942 4.23242188 234.12939453 C3.34296827 232.48128933 2.48875444 230.81370202 1.66992188 229.12939453 C1.22132813 228.22962891 0.77273438 227.32986328 0.31054688 226.40283203 C-6.83852496 210.8010341 -6.75049788 194.71021079 -6.62304688 177.91064453 C-6.61743814 175.71391085 -6.6131741 173.51717337 -6.61018372 171.32043457 C-6.59883541 165.59288823 -6.56945661 159.86557718 -6.53607178 154.13812256 C-6.50515268 148.27196432 -6.49163211 142.40576735 -6.4765625 136.53955078 C-6.4445755 125.06937971 -6.39189162 113.59944367 -6.33007812 102.12939453 C-17.22007812 102.12939453 -28.11007812 102.12939453 -39.33007812 102.12939453 C-39.33007812 85.95939453 -39.33007812 69.78939453 -39.33007812 53.12939453 C-28.44007813 53.12939453 -17.55007813 53.12939453 -6.33007812 53.12939453 C-6.34748047 47.51617187 -6.34748047 47.51617187 -6.36523438 41.78955078 C-6.3730236 38.18221115 -6.37910113 34.57487244 -6.38500977 30.9675293 C-6.39005176 28.45222558 -6.39688515 25.93692481 -6.40551758 23.42163086 C-6.41758906 19.81509678 -6.42330761 16.20860131 -6.42773438 12.60205078 C-6.43289566 11.46977554 -6.43805695 10.33750031 -6.44337463 9.1709137 C-6.44345016 8.12991013 -6.4435257 7.08890656 -6.44360352 6.01635742 C-6.44582413 5.09480362 -6.44804474 4.17324982 -6.45033264 3.22377014 C-6.21051927 -0.95286539 -3.58427884 0.00283079 0 0 Z " fill="#070707" transform="translate(574.330078125,70.87060546875)"/>
<path d="M0 0 C1.11785889 -0.00315216 2.23571777 -0.00630432 3.38745117 -0.009552 C5.21240112 -0.00651566 5.21240112 -0.00651566 7.07421875 -0.00341797 C8.31341064 -0.00437469 9.55260254 -0.00533142 10.8293457 -0.00631714 C13.45560156 -0.00699921 16.08176508 -0.00564085 18.70800781 -0.00097656 C22.08100589 0.00472073 25.4539244 0.00144151 28.82691956 -0.00454903 C32.03435552 -0.00902317 35.24178175 -0.00589429 38.44921875 -0.00341797 C39.66585205 -0.0054422 40.88248535 -0.00746643 42.13598633 -0.009552 C43.81277466 -0.00482376 43.81277466 -0.00482376 45.5234375 0 C46.51303467 0.00079559 47.50263184 0.00159119 48.5222168 0.00241089 C50.76171875 0.12939453 50.76171875 0.12939453 51.76171875 1.12939453 C51.85512309 2.75614231 51.87917046 4.38693504 51.87524414 6.01635742 C51.87512329 7.07197876 51.87500244 8.1276001 51.87487793 9.21520996 C51.86976196 10.33286743 51.864646 11.4505249 51.859375 12.60205078 C51.85836792 13.62327026 51.85736084 14.64448975 51.85632324 15.69665527 C51.8510729 19.52841304 51.83711178 23.36015486 51.82421875 27.19189453 C51.80359375 35.75126953 51.78296875 44.31064453 51.76171875 53.12939453 C71.56171875 53.12939453 91.36171875 53.12939453 111.76171875 53.12939453 C111.76171875 69.29939453 111.76171875 85.46939453 111.76171875 102.12939453 C91.96171875 102.12939453 72.16171875 102.12939453 51.76171875 102.12939453 C51.85281846 116.71742928 51.85281846 116.71742928 51.97070312 131.30517578 C52.02479135 137.26494925 52.07590915 143.22463341 52.1081543 149.18457031 C52.13438432 153.99581989 52.17492205 158.80676522 52.22490501 163.61782455 C52.24144172 165.4427496 52.25303735 167.26772711 52.25933266 169.09271622 C51.96824736 187.97796215 51.96824736 187.97796215 58.76171875 205.12939453 C59.42171875 205.45939453 60.08171875 205.78939453 60.76171875 206.12939453 C60.76171875 206.78939453 60.76171875 207.44939453 60.76171875 208.12939453 C62.75070737 208.82822837 64.7550205 209.48316967 66.76171875 210.12939453 C67.50421875 210.38205078 68.24671875 210.63470703 69.01171875 210.89501953 C80.01629258 214.31717359 91.71899094 214.73928707 103.1171875 213.39111328 C107.97139076 212.91071207 112.89163416 212.85250009 117.76171875 213.12939453 C119.34530479 214.71298057 118.89685538 216.32929813 118.90698242 218.52563477 C118.91336227 219.46007919 118.91974213 220.39452362 118.92631531 221.35728455 C118.92798454 222.88223289 118.92798454 222.88223289 118.9296875 224.43798828 C118.9330159 225.4750441 118.9363443 226.51209991 118.93977356 227.58058167 C118.94484735 229.77889562 118.94718175 231.97721731 118.94702148 234.17553711 C118.94920713 237.54895654 118.96735589 240.9220487 118.98632812 244.29541016 C118.98926205 246.42626841 118.99124685 248.55712822 118.9921875 250.68798828 C118.99937302 251.70259628 119.00655853 252.71720428 119.01396179 253.76255798 C119.01088516 254.70015457 119.00780853 255.63775116 119.00463867 256.60375977 C119.00606369 257.43125229 119.00748871 258.25874481 119.00895691 259.11131287 C118.76171875 261.12939453 118.76171875 261.12939453 116.76171875 263.12939453 C114.231663 263.7407028 111.75886845 264.25009198 109.19921875 264.69189453 C108.18118164 264.88041992 108.18118164 264.88041992 107.14257812 265.07275391 C97.54983732 266.79962808 88.19647863 267.31147035 78.44921875 267.31689453 C77.30259766 267.32914062 76.15597656 267.34138672 74.97460938 267.35400391 C67.36809489 267.36691819 60.21422645 266.63776677 52.76171875 265.12939453 C51.09109375 264.79488281 51.09109375 264.79488281 49.38671875 264.45361328 C30.69692808 259.92022656 14.76638695 250.91880392 3.88671875 234.69189453 C0.70799449 229.41147258 -1.37721303 223.9851799 -3.23828125 218.12939453 C-3.63015625 217.05689453 -4.02203125 215.98439453 -4.42578125 214.87939453 C-6.37571266 208.27962668 -6.37792671 201.69401405 -6.35180664 194.87963867 C-6.35195267 193.87399872 -6.35209869 192.86835876 -6.35224915 191.83224487 C-6.35155552 188.52632448 -6.34378891 185.22046126 -6.3359375 181.91455078 C-6.33407137 179.61527029 -6.33264839 177.3159894 -6.33164978 175.01670837 C-6.32783998 168.97841282 -6.31802284 162.94014148 -6.3069458 156.90185547 C-6.2966986 150.73486661 -6.29214508 144.56787383 -6.28710938 138.40087891 C-6.27639917 126.31037178 -6.25881484 114.21988897 -6.23828125 102.12939453 C-17.45828125 102.12939453 -28.67828125 102.12939453 -40.23828125 102.12939453 C-40.23828125 85.95939453 -40.23828125 69.78939453 -40.23828125 53.12939453 C-29.01828125 53.12939453 -17.79828125 53.12939453 -6.23828125 53.12939453 C-6.25568359 47.51617187 -6.25568359 47.51617187 -6.2734375 41.78955078 C-6.28122672 38.18221115 -6.28730425 34.57487244 -6.29321289 30.9675293 C-6.29825488 28.45222558 -6.30508828 25.93692481 -6.3137207 23.42163086 C-6.32579219 19.81509678 -6.33151074 16.20860131 -6.3359375 12.60205078 C-6.34109879 11.46977554 -6.34626007 10.33750031 -6.35157776 9.1709137 C-6.35165329 8.12991013 -6.35172882 7.08890656 -6.35180664 6.01635742 C-6.35402725 5.09480362 -6.35624786 4.17324982 -6.35853577 3.22377014 C-6.12042746 -0.92316963 -3.56687204 0.00286761 0 0 Z " fill="#050505" transform="translate(411.23828125,70.87060546875)"/>
<path d="M0 0 C1.02814316 0.00222061 2.05628632 0.00444122 3.11558533 0.00672913 C4.85727745 0.00684242 4.85727745 0.00684242 6.63415527 0.00695801 C8.52943214 0.01469994 8.52943214 0.01469994 10.46299744 0.02259827 C12.39193092 0.02472069 12.39193092 0.02472069 14.35983276 0.02688599 C17.78427561 0.03071034 21.20867628 0.0405399 24.63310242 0.05158997 C28.12522308 0.06180587 31.61735053 0.06638399 35.10948181 0.07142639 C41.96561897 0.08216225 48.82172806 0.09923767 55.67784119 0.12025452 C55.70116675 27.22281398 55.71881867 54.32537195 55.72965336 81.42793941 C55.73481705 94.0111722 55.74186112 106.59439877 55.75328064 119.17762756 C55.76322526 130.14085553 55.76969408 141.10407899 55.77192968 152.06731135 C55.77323717 157.8761374 55.7763254 163.68495057 55.78357124 169.49377251 C55.79032796 174.95440203 55.79245886 180.41501328 55.79094887 185.87564659 C55.79122535 187.88608652 55.79323253 189.89652702 55.79704666 191.90696335 C55.80197848 194.63917036 55.80084138 197.37130718 55.7980957 200.10351562 C55.80100854 200.90992003 55.80392139 201.71632443 55.8069225 202.54716533 C55.7919624 208.00613331 55.7919624 208.00613331 54.67784119 209.12025452 C52.93931226 209.21912921 51.1967668 209.24824481 49.45542908 209.24964905 C48.34079788 209.25280121 47.22616669 209.25595337 46.07775879 209.25920105 C44.86426254 209.25717682 43.6507663 209.25515259 42.40049744 209.25306702 C40.54526711 209.25450211 40.54526711 209.25450211 38.65255737 209.25596619 C35.35711432 209.25682349 32.06171796 209.25278317 28.76628113 209.24720764 C26.7440287 209.24525807 24.72181973 209.24719838 22.6995697 209.25062561 C18.82902493 209.2567855 14.95854485 209.25605871 11.08799744 209.25306702 C9.87652542 209.25509125 8.66505341 209.25711548 7.41687012 209.25920105 C5.74019508 209.25447281 5.74019508 209.25447281 4.02964783 209.24964905 C3.04227127 209.24885345 2.05489471 209.24805786 1.03759766 209.24723816 C-1.32215881 209.12025452 -1.32215881 209.12025452 -3.32215881 208.12025452 C-3.3454844 181.14807887 -3.36313631 154.17590473 -3.37397099 127.20372105 C-3.37913467 114.6810224 -3.38617874 102.15833001 -3.39759827 89.63563538 C-3.4075429 78.72514512 -3.41401171 67.81465939 -3.41624731 56.90416473 C-3.41755479 51.12328432 -3.420643 45.34241687 -3.42788887 39.5615406 C-3.43464562 34.12717588 -3.43677648 28.69282952 -3.43526649 23.258461 C-3.43554298 21.25769641 -3.43755014 19.25693124 -3.44136429 17.25617027 C-3.44629614 14.53710033 -3.44515899 11.81810092 -3.44241333 9.09902954 C-3.44532617 8.29651609 -3.44823901 7.49400263 -3.45124012 6.66717058 C-3.43337057 0.17779935 -3.43337057 0.17779935 0 0 Z " fill="#080808" transform="translate(282.32215881347656,123.87974548339844)"/>
<path d="M0 0 C8.81866361 6.04197628 15.71288427 15.30953917 17.890625 25.98046875 C18.80501324 37.36875862 16.70044865 45.93955763 10.29296875 55.36328125 C9.83019531 55.89695313 9.36742187 56.430625 8.890625 56.98046875 C8.230625 56.98046875 7.570625 56.98046875 6.890625 56.98046875 C6.560625 57.97046875 6.230625 58.96046875 5.890625 59.98046875 C5.230625 59.98046875 4.570625 59.98046875 3.890625 59.98046875 C3.890625 60.64046875 3.890625 61.30046875 3.890625 61.98046875 C1.66510242 63.13388573 -0.56433469 64.27828034 -2.796875 65.41796875 C-3.42271484 65.74345703 -4.04855469 66.06894531 -4.69335938 66.40429688 C-13.49389352 70.87367809 -23.27486984 71.20472004 -32.828125 68.81640625 C-37.24316166 67.19856747 -41.3821255 64.84399237 -45.109375 61.98046875 C-45.109375 61.32046875 -45.109375 60.66046875 -45.109375 59.98046875 C-46.099375 59.65046875 -47.089375 59.32046875 -48.109375 58.98046875 C-48.109375 58.32046875 -48.109375 57.66046875 -48.109375 56.98046875 C-48.769375 56.98046875 -49.429375 56.98046875 -50.109375 56.98046875 C-51.546875 55.0390625 -51.546875 55.0390625 -53.109375 52.41796875 C-53.625 51.57105469 -54.140625 50.72414062 -54.671875 49.8515625 C-59.14412707 40.91921122 -59.83908992 29.70001355 -56.984375 20.10546875 C-52.89981624 10.02644181 -45.54994212 1.35405173 -35.734375 -3.51953125 C-23.710105 -7.658727 -10.84667818 -6.31882066 0 0 Z " fill="#26C9FD" transform="translate(329.109375,17.01953125)"/>
<path d="M0 0 C1.11778336 -0.00315216 2.23556671 -0.00630432 3.38722229 -0.009552 C5.20443031 -0.00651566 5.20443031 -0.00651566 7.05834961 -0.00341797 C8.91501503 -0.00485306 8.91501503 -0.00485306 10.80918884 -0.00631714 C14.10171246 -0.00717346 17.39418916 -0.00313863 20.68670654 0.00244141 C22.71009824 0.00439396 24.73344662 0.0024468 26.75683594 -0.00097656 C30.62819455 -0.00712796 34.49948838 -0.00641261 38.37084961 -0.00341797 C39.58434586 -0.0054422 40.7978421 -0.00746643 42.04811096 -0.009552 C43.72005775 -0.00482376 43.72005775 -0.00482376 45.42578125 0 C46.90565269 0.00119339 46.90565269 0.00119339 48.41542053 0.00241089 C50.64819336 0.12939453 50.64819336 0.12939453 51.64819336 1.12939453 C51.74631426 2.80174672 51.77374909 4.47827523 51.7740345 6.15350342 C51.77664225 7.24866398 51.77924999 8.34382454 51.78193676 9.47217178 C51.77970604 10.69033459 51.77747532 11.90849739 51.775177 13.16357422 C51.77673699 14.44595852 51.77829698 15.72834282 51.77990425 17.04958725 C51.78410203 20.62550024 51.78200487 24.20138676 51.77891803 27.77729988 C51.77666596 31.62737335 51.78014257 35.4774421 51.78289795 39.32751465 C51.78735672 46.87629254 51.7863787 54.42506052 51.78348531 61.97383881 C51.78123169 68.1060545 51.78091857 74.23826741 51.78200912 80.3704834 C51.78216236 81.24152261 51.78231559 82.11256183 51.78247347 83.00999618 C51.78279318 84.77920691 51.78311739 86.54841765 51.78344606 88.31762838 C51.78630116 104.92784857 51.78301335 121.53806325 51.77764569 138.14828253 C51.77317763 152.41672887 51.77395355 166.68516708 51.77856445 180.95361328 C51.78390968 197.50228637 51.78602647 214.05095462 51.78295219 230.59962845 C51.78263362 232.36252085 51.78231925 234.12541326 51.78200912 235.88830566 C51.78177771 237.18954805 51.78177771 237.18954805 51.78154162 238.51707816 C51.78067631 244.64562327 51.78213965 250.77416533 51.78448868 256.90270996 C51.7872863 264.36605082 51.78654922 271.82938115 51.78120793 279.29272079 C51.7785704 283.10440907 51.77756672 286.91607977 51.78085709 290.72776794 C51.78436207 294.85026571 51.78019192 298.97271866 51.775177 303.09521484 C51.77740772 304.31337765 51.77963845 305.53154045 51.78193676 306.78661728 C51.77802514 308.42935812 51.77802514 308.42935812 51.7740345 310.10528564 C51.77387215 311.05822132 51.7737098 312.011157 51.77354252 312.99296951 C51.64819336 315.12939453 51.64819336 315.12939453 50.64819336 316.12939453 C49.02691913 316.22801051 47.40136968 316.2573822 45.77709961 316.25878906 C44.22043579 316.2635173 44.22043579 316.2635173 42.63232422 316.26834106 C40.93861694 316.26530472 40.93861694 316.26530472 39.21069336 316.26220703 C37.48508179 316.26364212 37.48508179 316.26364212 35.72460938 316.2651062 C33.28670192 316.26578822 30.84879266 316.26393243 28.41088867 316.25976562 C24.66442818 316.25441771 20.91808759 316.25970992 17.17163086 316.26611328 C14.80965143 316.2654525 12.44767207 316.26417135 10.08569336 316.26220703 C8.95655518 316.26423126 7.82741699 316.26625549 6.6640625 316.26834106 C5.62628662 316.2651889 4.58851074 316.26203674 3.51928711 316.25878906 C2.60074951 316.25799347 1.68221191 316.25719788 0.73583984 316.25637817 C-1.35180664 316.12939453 -1.35180664 316.12939453 -2.35180664 315.12939453 C-2.50945069 313.35069727 -2.60281341 311.56620977 -2.66821289 309.78173828 C-2.71010742 308.70214844 -2.75200195 307.62255859 -2.79516602 306.51025391 C-2.85414063 304.80579102 -2.85414063 304.80579102 -2.91430664 303.06689453 C-2.95749023 301.92671875 -3.00067383 300.78654297 -3.04516602 299.61181641 C-3.15163503 296.78447258 -3.25364872 293.95703715 -3.35180664 291.12939453 C-2.69180664 291.12939453 -2.03180664 291.12939453 -1.35180664 291.12939453 C-1.35180664 298.71939453 -1.35180664 306.30939453 -1.35180664 314.12939453 C15.80819336 314.12939453 32.96819336 314.12939453 50.64819336 314.12939453 C50.64819336 211.16939453 50.64819336 108.20939453 50.64819336 2.12939453 C32.16819336 2.12939453 13.68819336 2.12939453 -5.35180664 2.12939453 C-5.35180664 43.37939453 -5.35180664 84.62939453 -5.35180664 127.12939453 C-6.67180664 126.79939453 -7.99180664 126.46939453 -9.35180664 126.12939453 C-8.85680664 125.13939453 -8.85680664 125.13939453 -8.35180664 124.12939453 C-8.24723688 122.49519901 -8.20526084 120.85682596 -8.19358826 119.21932983 C-8.18379944 118.18163956 -8.17401062 117.14394928 -8.16392517 116.07481384 C-8.15816971 114.93186356 -8.15241425 113.78891327 -8.14648438 112.61132812 C-8.13658478 111.41134689 -8.12668518 110.21136566 -8.1164856 108.97502136 C-8.09026406 105.6797956 -8.068416 102.38459451 -8.04848361 99.08932829 C-8.02663892 95.6473042 -7.99924282 92.20532449 -7.97242737 88.76333618 C-7.92247993 82.24334747 -7.87754873 75.72333415 -7.834405 69.20329726 C-7.78505013 61.7813556 -7.73012553 54.35945846 -7.67472541 46.93755984 C-7.56087389 31.66821253 -7.45404178 16.3988243 -7.35180664 1.12939453 C-4.76509636 -0.16396061 -2.8963388 0.00233377 0 0 Z " fill="#696969" transform="translate(172.351806640625,16.87060546875)"/>
<path d="M0 0 C1 1 1 1 1.12025452 2.90455627 C1.11803391 3.73728561 1.11581329 4.57001495 1.11352539 5.42797852 C1.11344986 6.36887833 1.11337433 7.30977814 1.11329651 8.27919006 C1.10813522 9.30209641 1.10297394 10.32500275 1.09765625 11.37890625 C1.0962413 12.42070541 1.09482635 13.46250458 1.09336853 14.53587341 C1.0877508 17.87811094 1.0751953 21.22028257 1.0625 24.5625 C1.05748728 26.82226466 1.05292398 29.08203037 1.04882812 31.34179688 C1.03777561 36.89455391 1.02102024 42.44727225 1 48 C-1 46 -1 46 -1.24050903 44.08908081 C-1.2338472 42.92325974 -1.2338472 42.92325974 -1.22705078 41.73388672 C-1.22689972 40.85312469 -1.22674866 39.97236267 -1.22659302 39.06491089 C-1.21627045 38.11278717 -1.20594788 37.16066345 -1.1953125 36.1796875 C-1.1924826 35.20589142 -1.18965271 34.23209534 -1.18673706 33.22879028 C-1.17551913 30.11073651 -1.1504117 26.99296732 -1.125 23.875 C-1.11497228 21.76432706 -1.10584607 19.65364962 -1.09765625 17.54296875 C-1.07557458 12.36188165 -1.04208129 7.18096115 -1 2 C-1.69322357 2.07614532 -2.38644714 2.15229065 -3.10067749 2.23074341 C-10.97302545 3.07259444 -18.77737061 3.11580829 -26.6875 3.0625 C-27.97333984 3.05798828 -29.25917969 3.05347656 -30.58398438 3.04882812 C-33.72270653 3.03716001 -36.86132728 3.02079015 -40 3 C-40 2.34 -40 1.68 -40 1 C-38.35064453 1.01740234 -38.35064453 1.01740234 -36.66796875 1.03515625 C-29.26804747 1.08884574 -22.01049132 1.01860122 -14.64453125 0.2265625 C-9.78423234 -0.18982943 -4.87108824 -0.27695151 0 0 Z " fill="#787878" transform="translate(529,284)"/>
<path d="M0 0 C0.99 0.99 0.99 0.99 2 2 C1.33147003 1.9297612 0.66294006 1.8595224 -0.02584839 1.78715515 C-6.64151065 1.1329925 -13.17465232 0.84005943 -19.8203125 0.83203125 C-20.80442108 0.82870285 -21.78852966 0.82537445 -22.80245972 0.82194519 C-24.86455829 0.81692337 -26.92666485 0.81453538 -28.98876953 0.81469727 C-32.12415954 0.81250059 -35.25920275 0.79426633 -38.39453125 0.77539062 C-40.41145715 0.77245762 -42.42838469 0.7704722 -44.4453125 0.76953125 C-45.37054718 0.76234573 -46.29578186 0.75516022 -47.24905396 0.74775696 C-52.42481776 0.76575475 -57.02042788 1.26408399 -62.01168823 2.66825867 C-64.29451104 3.04913791 -65.81372906 2.69898018 -68 2 C-48.81491907 -6.34133953 -19.76105198 -6.37264694 0 0 Z " fill="#6A6A6A" transform="translate(862,122)"/>
<path d="M0 0 C1.13137576 3.39412727 0.75172808 5.54303995 0 9 C-0.24667151 12.24441556 -0.43820072 15.48699176 -0.60546875 18.73632812 C-0.89740052 23.79480104 -0.89740052 23.79480104 -2 26 C-2.08471364 27.81341842 -2.10721083 29.62994161 -2.09765625 31.4453125 C-2.09443359 32.52167969 -2.09121094 33.59804687 -2.08789062 34.70703125 C-2.07951172 35.83496094 -2.07113281 36.96289062 -2.0625 38.125 C-2.05798828 39.26066406 -2.05347656 40.39632812 -2.04882812 41.56640625 C-2.03701615 44.37765638 -2.02054507 47.1888023 -2 50 C-5.34608418 44.52944442 -4.38838375 37.95281229 -4.375 31.75 C-4.3764502 31.07547791 -4.37790039 30.40095581 -4.37939453 29.70599365 C-4.37691129 19.299029 -3.52316007 9.84597413 0 0 Z " fill="#898989" transform="translate(721,197)"/>
<path d="M0 0 C1.44645704 2.89291408 0.43200904 4.4747768 -0.4375 7.5625 C-3.147813 18.76429822 -2.83314228 29.85630704 0 41 C-0.44140625 43.23046875 -0.44140625 43.23046875 -1 45 C-4.32518748 37.85569799 -4.48459139 31.43360929 -4.4375 23.625 C-4.45748047 22.45710938 -4.47746094 21.28921875 -4.49804688 20.0859375 C-4.49383048 12.56388987 -3.38875883 6.7351702 0 0 Z " fill="#747474" transform="translate(780,205)"/>
<path d="M0 0 C2.54956089 1.27478044 2.65769703 2.09041559 3.60546875 4.734375 C5.52952011 10.85933246 5.40231681 16.88378431 5.3125 23.25 C5.31572266 24.40757812 5.31894531 25.56515625 5.32226562 26.7578125 C5.28874337 32.03604359 5.23362837 36.14259469 3 41 C1.98851952 37.85317183 2.20098179 36.14947548 3 33 C3.87057064 21.74193883 3.31725093 10.8205566 0 0 Z " fill="#808080" transform="translate(880,205)"/>
<path d="M0 0 C0.77794922 0.00064453 1.55589844 0.00128906 2.35742188 0.00195312 C7.41479244 0.03991504 12.33808755 0.23868704 17.3125 1.1875 C17.9725 2.1775 18.6325 3.1675 19.3125 4.1875 C18.58289063 4.043125 17.85328125 3.89875 17.1015625 3.75 C7.44507918 2.03329185 -1.90833804 1.98994117 -11.6875 2.1875 C-7.78746907 -0.41252062 -4.51526147 -0.06935325 0 0 Z " fill="#818181" transform="translate(113.6875,170.8125)"/>
<path d="M0 0 C-3.00440021 2.00293347 -4.70993945 2.49271626 -8.1875 3.125 C-9.08855469 3.29257813 -9.98960937 3.46015625 -10.91796875 3.6328125 C-11.60503906 3.75398437 -12.29210937 3.87515625 -13 4 C-11.72807637 1.45615274 -10.80051531 1.30631844 -8.1875 0.3125 C-7.50042969 0.04050781 -6.81335938 -0.23148437 -6.10546875 -0.51171875 C-3.70623504 -1.06812731 -2.3105636 -0.77364938 0 0 Z " fill="#818181" transform="translate(794,126)"/>
<path d="M0 0 C0.66 0 1.32 0 2 0 C1.71640113 1.4391134 1.42278601 2.87625518 1.125 4.3125 C0.88136719 5.51326172 0.88136719 5.51326172 0.6328125 6.73828125 C0 9 0 9 -2 12 C-2.21278058 7.53160785 -1.59138085 4.17737474 0 0 Z " fill="#797979" transform="translate(940,253)"/>
<path d="M0 0 C0.66 0.33 1.32 0.66 2 1 C-0.20979308 3.81939117 -2.40062046 6.53058944 -5 9 C-5.66 8.67 -6.32 8.34 -7 8 C-6.34 7.01 -5.68 6.02 -5 5 C-4.34 5 -3.68 5 -3 5 C-2.67 4.01 -2.34 3.02 -2 2 C-1.34 2 -0.68 2 0 2 C0 1.34 0 0.68 0 0 Z " fill="#717171" transform="translate(35,144)"/>
</svg>
